# xmcd CD database file
#
# Track frame offsets:
#	150
#	21123
#	37159
#	49920
#	67510
#	86038
#
# Disc length: 1328 seconds
#
# Revision: 2
# Processed by: cddbd v1.5.2PL0 Copyright (c) Steve Scherf et al.
# Submitted via: CDex 1.79
#
DISCID=46052e06
DTITLE=The Common Linnets - The Common Linnets (Special Edition) EP
DYEAR=2014
DGENRE=Country
TTITLE0=Broken But Home (Acoustic)
TTITLE1=Calm After The Storm (Acoustic)
TTITLE2=Time Has No Mercy (Acoustic)
TTITLE3=Hungry Hands (Acoustic)
TTITLE4=Still Loving After You (Acoustic)
TTITLE5=Christmas Around Me
EXTD=YEAR: 2014
EXTT0=
EXTT1=
EXTT2=
EXTT3=
EXTT4=
EXTT5=
PLAYORDER=
